<?xml version="1.0" encoding="UTF-8" standalone="no"?>
<!DOCTYPE svg PUBLIC "-//W3C//DTD SVG 1.1//EN" "http://www.w3.org/Graphics/SVG/1.1/DTD/svg11.dtd">
<svg width="100%" height="100%" viewBox="0 0 59 62" version="1.1" xmlns="http://www.w3.org/2000/svg" xmlns:xlink="http://www.w3.org/1999/xlink" xml:space="preserve" xmlns:serif="http://www.serif.com/" style="fill-rule:evenodd;clip-rule:evenodd;stroke-linecap:round;stroke-linejoin:round;">
    <g id="Frog" transform="matrix(0.988795,0,0,0.993552,0.00120941,114.884)">
        <g id="Path_3" transform="matrix(1,0,0,1,0,-30.931)">
            <path d="M23.55,-32.969C31.104,-21.487 22.307,-18.256 5.65,-28.353C5.65,-28.353 2.713,-27.279 1.205,-27.664C0.059,-27.944 -0.753,-29.225 1.08,-29.723L2.614,-30.2C-1.01,-32.6 -0.441,-34.933 4.014,-32.571L3.54,-34.404C3,-35.933 4.538,-37.212 5.8,-35.1C6.68,-33.891 7.169,-32.44 7.2,-30.945L16.112,-30.145C4.994,-38.846 -0.9,-53.9 18.573,-46.4L23.55,-32.969Z" style="fill:rgb(33,117,37);"/>
        </g>
        <g id="Path_4" transform="matrix(1,0,0,1,-27.828,-30.715)">
            <path d="M68.284,-46.606C80.608,-53.026 88.146,-45.463 70.619,-30.421C70.619,-30.421 80.08,-31.135 80.141,-31.154C80.138,-32.694 80.763,-34.171 81.871,-35.242C82.724,-36.057 84.241,-36.053 83.671,-34.242L83.248,-32.692C87.217,-34.457 88.882,-32.72 84.495,-30.239L86.295,-29.652C87.872,-29.284 88.121,-27.298 85.661,-27.369C84.098,-27.299 82.549,-27.688 81.205,-28.488C61.031,-16.606 56.705,-24.716 63.339,-33.188C63.568,-38.062 65.295,-42.749 68.284,-46.606Z" style="fill:rgb(33,117,37);"/>
        </g>
        <g id="Path_5" transform="matrix(1,0,0,1,-33.109,-9.867)">
            <path d="M73.861,-82.853L80.6,-81.2L82.809,-87.179C82.809,-87.179 80.386,-89.1 79.952,-90.6C79.612,-91.729 80.303,-93.08 81.663,-91.753L82.853,-90.674C83.078,-95.012 85.38,-95.709 85.605,-90.674C86.099,-91.07 86.548,-91.519 86.944,-92.013C88.455,-93.677 89.53,-92.142 88.692,-90.413C87.952,-89.208 87.022,-88.13 85.938,-87.222C87.059,-82.253 85.958,-77.034 82.926,-72.941C82.182,-72.158 78.141,-74.112 74.003,-76.225C70.681,-77.282 71.894,-83.024 73.861,-82.853Z" style="fill:rgb(33,117,37);"/>
        </g>
        <g id="Path_6" transform="matrix(1,0,0,1,-2.706,-9.874)">
            <path d="M20.8,-76.245C18.162,-74.887 15.433,-73.714 12.633,-72.734C10.583,-72.034 7.212,-80.452 8.833,-87.191C7.459,-87.887 6.425,-89.113 5.973,-90.586C5.633,-91.715 6.324,-93.066 7.684,-91.739L8.874,-90.66C9.099,-94.998 11.401,-95.695 11.626,-90.66L12.957,-92C14,-93.24 15.883,-92.561 14.705,-90.4C14.158,-89.067 13.2,-87.941 11.972,-87.187L14.203,-81.187L20.944,-82.907C23.016,-81.794 22.19,-76.844 20.8,-76.245Z" style="fill:rgb(33,117,37);"/>
        </g>
        <g id="Path_7" transform="matrix(1,0,0,1,-15.332,0)">
            <path d="M33.905,-77.335C33.329,-80.225 33.166,-83.183 33.422,-86.119L33.57,-92.784C33.659,-95.913 33.938,-99.033 34.407,-102.128C32.784,-104.367 33.798,-110.201 37.987,-109.473C40.723,-117.649 48.744,-117.668 51.655,-109.613C54.996,-109.148 57.062,-107.343 55.235,-102.454L56.085,-92.72L56.226,-86.093C56.462,-83.163 56.315,-80.214 55.788,-77.322C55.336,-72.495 53.632,-67.868 50.847,-63.9C46.362,-60.983 42.432,-61.327 38.883,-63.9C36.28,-67.035 34.356,-71.137 33.905,-77.335Z" style="fill:rgb(33,117,37);"/>
        </g>
        <g id="Path_8" transform="matrix(1,0,0,1,-22.367,-16.04)">
            <path d="M48.592,-80.782L48.592,-59.682" style="fill:none;fill-rule:nonzero;stroke:rgb(40,74,33);stroke-width:4.51px;"/>
        </g>
        <g id="Path_9" transform="matrix(1,0,0,1,-28.324,-16.04)">
            <path d="M61.533,-80.782L61.533,-59.682" style="fill:none;fill-rule:nonzero;stroke:rgb(40,74,33);stroke-width:4.51px;"/>
        </g>
    </g>
</svg>
