<?xml version="1.0" encoding="UTF-8" standalone="no"?>
<!DOCTYPE svg PUBLIC "-//W3C//DTD SVG 1.1//EN" "http://www.w3.org/Graphics/SVG/1.1/DTD/svg11.dtd">
<svg width="100%" height="100%" viewBox="0 0 1034 824" version="1.1" xmlns="http://www.w3.org/2000/svg" xmlns:xlink="http://www.w3.org/1999/xlink" xml:space="preserve" xmlns:serif="http://www.serif.com/" style="fill-rule:evenodd;clip-rule:evenodd;stroke-linejoin:round;stroke-miterlimit:2;">
    <g id="Path_1" transform="matrix(1,0,0,1,-933.551,-260.684)">
        <g transform="matrix(0.661614,-0.749845,0.749845,0.661614,99.0175,1149.29)">
            <text x="1322.89px" y="464.935px" style="font-family:'Intro-Trial-Bd', 'Intro-Trial';font-weight:700;font-size:20px;">C</text>
        </g>
        <g transform="matrix(0.720562,-0.693391,0.693391,0.720562,57.9184,1051.01)">
            <text x="1332.94px" y="453.647px" style="font-family:'Intro-Trial-Bd', 'Intro-Trial';font-weight:700;font-size:20px;">a</text>
        </g>
        <g transform="matrix(0.758844,-0.651273,0.651273,0.758844,32.9832,980.901)">
            <text x="1341.02px" y="445.913px" style="font-family:'Intro-Trial-Bd', 'Intro-Trial';font-weight:700;font-size:20px;">t</text>
        </g>
        <g transform="matrix(0.793763,-0.608228,0.608228,0.793763,10.151,910.42)">
            <text x="1347.56px" y="440.241px" style="font-family:'Intro-Trial-Bd', 'Intro-Trial';font-weight:700;font-size:20px;">c</text>
        </g>
        <g transform="matrix(0.829429,-0.558613,0.558613,0.829429,-10.6466,831.725)">
            <text x="1356.61px" y="433.296px" style="font-family:'Intro-Trial-Bd', 'Intro-Trial';font-weight:700;font-size:20px;">h</text>
        </g>
        <g transform="matrix(0.914469,-0.404657,0.404657,0.914469,-54.7751,590.806)">
            <text x="1370.19px" y="424.976px" style="font-family:'Intro-Trial-Bd', 'Intro-Trial';font-weight:700;font-size:20px;">t</text>
        </g>
        <g transform="matrix(0.937745,-0.347324,0.347324,0.937745,-60.5377,504.959)">
            <text x="1378.33px" y="421.352px" style="font-family:'Intro-Trial-Bd', 'Intro-Trial';font-weight:700;font-size:20px;">h</text>
        </g>
        <g transform="matrix(0.951492,-0.307675,0.307675,0.951492,-60.9623,447.773)">
            <text x="1389.56px" y="417.219px" style="font-family:'Intro-Trial-Bd', 'Intro-Trial';font-weight:700;font-size:20px;">e</text>
        </g>
        <g transform="matrix(0.961468,-0.274918,0.274918,0.961468,-59.299,401.994)">
            <text x="1404.41px" y="412.538px" style="font-family:'Intro-Trial-Bd', 'Intro-Trial';font-weight:700;font-size:20px;">f</text>
        </g>
        <g transform="matrix(0.965394,-0.260796,0.260796,0.965394,-58.0615,382.668)">
            <text x="1412.89px" y="410.114px" style="font-family:'Intro-Trial-Bd', 'Intro-Trial';font-weight:700;font-size:20px;">r</text>
        </g>
        <g transform="matrix(0.968571,-0.248738,0.248738,0.968571,-56.7674,366.362)">
            <text x="1421.35px" y="407.816px" style="font-family:'Intro-Trial-Bd', 'Intro-Trial';font-weight:700;font-size:20px;">o</text>
        </g>
        <g transform="matrix(0.971171,-0.238383,0.238383,0.971171,-55.1842,353.297)">
            <text x="1433.1px" y="404.805px" style="font-family:'Intro-Trial-Bd', 'Intro-Trial';font-weight:700;font-size:20px;">g</text>
        </g>
        <g transform="matrix(0.972569,-0.232613,0.232613,0.972569,-53.8815,347.063)">
            <text x="1444.62px" y="401.991px" style="font-family:'Intro-Trial-Bd', 'Intro-Trial';font-weight:700;font-size:20px;">.</text>
        </g>
        <g transform="matrix(0.973236,-0.229807,0.229807,0.973236,-53.2768,343.945)">
            <text x="1450px" y="400.703px" style="font-family:'Intro-Trial-Bd', 'Intro-Trial';font-weight:700;font-size:20px;">.</text>
        </g>
        <g transform="matrix(0.973771,-0.227531,0.227531,0.973771,-52.7096,341.622)">
            <text x="1455.38px" y="399.432px" style="font-family:'Intro-Trial-Bd', 'Intro-Trial';font-weight:700;font-size:20px;">.</text>
        </g>
    </g>
</svg>
