<?xml version="1.0" encoding="UTF-8" standalone="no"?>
<!DOCTYPE svg PUBLIC "-//W3C//DTD SVG 1.1//EN" "http://www.w3.org/Graphics/SVG/1.1/DTD/svg11.dtd">
<svg width="100%" height="100%" viewBox="0 0 731 612" version="1.1" xmlns="http://www.w3.org/2000/svg" xmlns:xlink="http://www.w3.org/1999/xlink" xml:space="preserve" xmlns:serif="http://www.serif.com/" style="fill-rule:evenodd;clip-rule:evenodd;stroke-linejoin:round;stroke-miterlimit:2;">
    <g id="Group_5" transform="matrix(0.999567,0,0,0.999595,-1134.51,-417.671)">
        <g id="Subtraction_1" transform="matrix(1,0,0,1,1135,902)">
            <path d="M66.5,128C57.627,128.02 48.835,126.312 40.615,122.971C32.759,119.788 25.584,115.133 19.477,109.255C13.438,103.475 8.596,96.562 5.226,88.912C-2.158,72.114 -1.705,52.874 6.462,36.443C8.534,32.277 11.056,28.351 13.982,24.734C16.917,21.108 20.231,17.805 23.866,14.881L43.375,33.2L45.9,3.131C61.147,-1.617 77.578,-0.945 92.387,5.031C100.243,8.214 107.418,12.869 113.525,18.747C119.564,24.527 124.406,31.44 127.776,39.09C134.741,54.959 134.741,73.044 127.776,88.913C124.406,96.563 119.564,103.476 113.525,109.256C107.417,115.133 100.241,119.788 92.385,122.97C84.165,126.312 75.373,128.02 66.5,128Z" style="fill:rgb(32,216,164);fill-rule:nonzero;"/>
        </g>
        <g id="Subtraction_2" transform="matrix(0.588,-0.809,0.809,0.588,1332.13,774.977)">
            <path d="M66.5,128C57.627,128.02 48.835,126.312 40.615,122.971C32.759,119.788 25.584,115.133 19.477,109.255C13.438,103.475 8.596,96.562 5.226,88.912C-2.158,72.114 -1.705,52.874 6.462,36.443C8.534,32.277 11.056,28.351 13.982,24.734C16.917,21.108 20.231,17.805 23.866,14.881L43.375,33.2L45.9,3.131C61.147,-1.617 77.578,-0.945 92.387,5.031C100.243,8.214 107.418,12.869 113.525,18.747C119.564,24.527 124.406,31.44 127.776,39.09C134.741,54.959 134.741,73.044 127.776,88.913C124.406,96.563 119.564,103.476 113.525,109.256C107.417,115.133 100.241,119.788 92.385,122.97C84.165,126.312 75.373,128.02 66.5,128Z" style="fill:rgb(32,216,164);fill-rule:nonzero;"/>
        </g>
        <g id="Subtraction_3" transform="matrix(0.839,0.545,-0.545,0.839,1612,850.213)">
            <path d="M66.5,128C57.627,128.02 48.835,126.312 40.615,122.971C32.759,119.788 25.584,115.133 19.477,109.255C13.438,103.475 8.596,96.562 5.226,88.912C-2.158,72.114 -1.705,52.874 6.462,36.443C8.534,32.277 11.056,28.351 13.982,24.734C16.917,21.108 20.231,17.805 23.866,14.881L43.375,33.2L45.9,3.131C61.147,-1.617 77.578,-0.945 92.387,5.031C100.243,8.214 107.418,12.869 113.525,18.747C119.564,24.527 124.406,31.44 127.776,39.09C134.741,54.959 134.741,73.044 127.776,88.913C124.406,96.563 119.564,103.476 113.525,109.256C107.417,115.133 100.241,119.788 92.385,122.97C84.165,126.312 75.373,128.02 66.5,128Z" style="fill:rgb(32,216,164);fill-rule:nonzero;"/>
        </g>
        <g id="Subtraction_4" transform="matrix(0.731354,-0.681998,0.681998,0.731354,1448.35,508.546)">
            <path d="M66.5,128C57.627,128.02 48.835,126.312 40.615,122.971C32.759,119.788 25.584,115.133 19.477,109.255C13.438,103.475 8.596,96.562 5.226,88.912C-2.158,72.114 -1.705,52.874 6.462,36.443C8.534,32.277 11.056,28.351 13.982,24.734C16.917,21.108 20.231,17.805 23.866,14.881L43.375,33.2L45.9,3.131C61.147,-1.617 77.578,-0.945 92.387,5.031C100.243,8.214 107.418,12.869 113.525,18.747C119.564,24.527 124.406,31.44 127.776,39.09C134.741,54.959 134.741,73.044 127.776,88.913C124.406,96.563 119.564,103.476 113.525,109.256C107.417,115.133 100.241,119.788 92.385,122.97C84.165,126.312 75.373,128.02 66.5,128Z" style="fill:rgb(32,216,164);fill-rule:nonzero;"/>
        </g>
        <g id="Subtraction_5" transform="matrix(0.984808,0.173648,-0.173648,0.984808,1735.34,593.656)">
            <path d="M66.5,128C57.627,128.02 48.835,126.312 40.615,122.971C32.759,119.788 25.584,115.133 19.477,109.255C13.438,103.475 8.596,96.562 5.226,88.912C-2.158,72.114 -1.705,52.874 6.462,36.443C8.534,32.277 11.056,28.351 13.982,24.734C16.917,21.108 20.231,17.805 23.866,14.881L43.375,33.2L45.9,3.131C61.147,-1.617 77.578,-0.945 92.387,5.031C100.243,8.214 107.418,12.869 113.525,18.747C119.564,24.527 124.406,31.44 127.776,39.09C134.741,54.959 134.741,73.044 127.776,88.913C124.406,96.563 119.564,103.476 113.525,109.256C107.417,115.133 100.241,119.788 92.385,122.97C84.165,126.312 75.373,128.02 66.5,128Z" style="fill:rgb(32,216,164);fill-rule:nonzero;"/>
        </g>
    </g>
</svg>
