<?xml version="1.0" encoding="UTF-8" standalone="no"?><!DOCTYPE svg PUBLIC "-//W3C//DTD SVG 1.1//EN" "http://www.w3.org/Graphics/SVG/1.1/DTD/svg11.dtd"><svg width="100%" height="100%" viewBox="0 0 1020 820" version="1.1" xmlns="http://www.w3.org/2000/svg" xmlns:xlink="http://www.w3.org/1999/xlink" xml:space="preserve" xmlns:serif="http://www.serif.com/" style="fill-rule:evenodd;clip-rule:evenodd;stroke-linejoin:round;stroke-miterlimit:2;"><g id="full_lake"><path id="Path_10" d="M2.292,819.95c0,-0 -21.415,-99.785 66.657,-170.62c88.072,-70.835 202.3,-65.43 263,-133.862c60.7,-68.432 -48.8,-252.119 90.455,-346.964c32.28,-21.989 139.324,-37.927 207.082,-58.832c84.356,-26.011 193.413,-116.581 265.414,-109.252c64.965,4.149 94.886,40.763 124.975,88.81c0.207,0.332 0.1,730.77 0.1,730.77" style="fill:#3ab0ff;fill-rule:nonzero;"/><g id="Path_101" serif:id="Path_10" transform="matrix(1,0,0,1,-934.261,-261.385)"><g transform="matrix(0.119539,-0.99283,0.99283,0.119539,570.118,1768.19)"><text x="1281.99px" y="562.658px" style="font-family:'Sen-Regular', sans-serif;font-weight:700;font-size:24px;">H</text></g><g transform="matrix(0.187118,-0.982337,0.982337,0.187118,508.72,1704.35)"><text x="1284.18px" y="544.792px" style="font-family:'Sen-Regular', sans-serif;font-weight:700;font-size:24px;">o</text></g><g transform="matrix(0.251432,-0.967875,0.967875,0.251432,449.513,1642.87)"><text x="1286.85px" y="530.831px" style="font-family:'Sen-Regular', sans-serif;font-weight:700;font-size:24px;">v</text></g><g transform="matrix(0.318108,-0.948054,0.948054,0.318108,388.219,1576.53)"><text x="1290.06px" y="518.387px" style="font-family:'Sen-Regular', sans-serif;font-weight:700;font-size:24px;">e</text></g><g transform="matrix(0.385379,-0.922758,0.922758,0.385379,328.617,1505.25)"><text x="1294.26px" y="505.941px" style="font-family:'Sen-Regular', sans-serif;font-weight:700;font-size:24px;">r</text></g><g transform="matrix(0.486011,-0.873953,0.873953,0.486011,239.372,1389.11)"><text x="1300.66px" y="491.05px" style="font-family:'Sen-Regular', sans-serif;font-weight:700;font-size:24px;">o</text></g><g transform="matrix(0.561036,-0.827792,0.827792,0.561036,177.708,1292.51)"><text x="1307.55px" y="478.693px" style="font-family:'Sen-Regular', sans-serif;font-weight:700;font-size:24px;">v</text></g><g transform="matrix(0.628567,-0.777755,0.777755,0.628567,124.343,1196.4)"><text x="1314.77px" y="468.019px" style="font-family:'Sen-Regular', sans-serif;font-weight:700;font-size:24px;">e</text></g><g transform="matrix(0.687284,-0.726389,0.726389,0.687284,81.2144,1104.23)"><text x="1323.08px" y="457.791px" style="font-family:'Sen-Regular', sans-serif;font-weight:700;font-size:24px;">r</text></g><g transform="matrix(0.761623,-0.648021,0.648021,0.761623,27.9871,970.478)"><text x="1333.1px" y="447.198px" style="font-family:'Sen-Regular', sans-serif;font-weight:700;font-size:24px;">w</text></g><g transform="matrix(0.814942,-0.579542,0.579542,0.814942,-3.14409,861.217)"><text x="1346.96px" y="435.532px" style="font-family:'Sen-Regular', sans-serif;font-weight:700;font-size:24px;">a</text></g><g transform="matrix(0.88668,-0.462384,0.462384,0.88668,-43.8982,676.33)"><text x="1357.88px" y="427.725px" style="font-family:'Sen-Regular', sans-serif;font-weight:700;font-size:24px;">t</text></g><g transform="matrix(0.9269,-0.375307,0.375307,0.9269,-58.7802,544.002)"><text x="1367.12px" y="422.896px" style="font-family:'Sen-Regular', sans-serif;font-weight:700;font-size:24px;">e</text></g><g transform="matrix(0.946346,-0.323155,0.323155,0.946346,-61.0728,468.169)"><text x="1379.34px" y="418.003px" style="font-family:'Sen-Regular', sans-serif;font-weight:700;font-size:24px;">r</text></g><g transform="matrix(0.96041,-0.278589,0.278589,0.96041,-59.7684,404.982)"><text x="1395.03px" y="412.784px" style="font-family:'Sen-Regular', sans-serif;font-weight:700;font-size:24px;">a</text></g><g transform="matrix(0.966202,-0.257786,0.257786,0.966202,-57.8332,376.835)"><text x="1408.19px" y="408.972px" style="font-family:'Sen-Regular', sans-serif;font-weight:700;font-size:24px;">n</text></g><g transform="matrix(0.970279,-0.24199,0.24199,0.970279,-55.7731,356.26)"><text x="1422.44px" y="405.182px" style="font-family:'Sen-Regular', sans-serif;font-weight:700;font-size:24px;">d</text></g><g transform="matrix(0.973125,-0.230278,0.230278,0.973125,-53.4117,342.892)"><text x="1442.32px" y="400.274px" style="font-family:'Sen-Regular', sans-serif;font-weight:700;font-size:24px;">c</text></g><g transform="matrix(0.974096,-0.226136,0.226136,0.974096,-52.0977,339.459)"><text x="1455.63px" y="397.127px" style="font-family:'Sen-Regular', sans-serif;font-weight:700;font-size:24px;">a</text></g><g transform="matrix(0.974398,-0.224829,0.224829,0.974398,-51.003,340.296)"><text x="1468.7px" y="394.096px" style="font-family:'Sen-Regular', sans-serif;font-weight:700;font-size:24px;">t</text></g><g transform="matrix(0.974255,-0.225447,0.225447,0.974255,-50.2471,343.49)"><text x="1478.86px" y="391.754px" style="font-family:'Sen-Regular', sans-serif;font-weight:700;font-size:24px;">c</text></g><g transform="matrix(0.973503,-0.228673,0.228673,0.973503,-49.341,351.522)"><text x="1492.19px" y="388.673px" style="font-family:'Sen-Regular', sans-serif;font-weight:700;font-size:24px;">h</text></g><g transform="matrix(0.971621,-0.236541,0.236541,0.971621,-48.0269,368.264)"><text x="1510.77px" y="384.289px" style="font-family:'Sen-Regular', sans-serif;font-weight:700;font-size:24px;">t</text></g><g transform="matrix(0.969362,-0.245638,0.245638,0.969362,-47.1706,385.356)"><text x="1521.17px" y="381.769px" style="font-family:'Sen-Regular', sans-serif;font-weight:700;font-size:24px;">h</text></g><g transform="matrix(0.965754,-0.259461,0.259461,0.965754,-45.5644,411.259)"><text x="1535.13px" y="378.234px" style="font-family:'Sen-Regular', sans-serif;font-weight:700;font-size:24px;">e</text></g><g transform="matrix(0.958431,-0.285325,0.285325,0.958431,-41.9564,458.665)"><text x="1553.13px" y="373.324px" style="font-family:'Sen-Regular', sans-serif;font-weight:700;font-size:24px;">f</text></g><g transform="matrix(0.94764,-0.319342,0.319342,0.94764,-36.4162,518.607)"><text x="1563.26px" y="370.353px" style="font-family:'Sen-Regular', sans-serif;font-weight:700;font-size:24px;">r</text></g><g transform="matrix(0.932508,-0.361151,0.361151,0.932508,-26.3648,592.964)"><text x="1573.29px" y="367.021px" style="font-family:'Sen-Regular', sans-serif;font-weight:700;font-size:24px;">o</text></g><g transform="matrix(0.917305,-0.398185,0.398185,0.917305,-12.8195,661.77)"><text x="1586.84px" y="361.749px" style="font-family:'Sen-Regular', sans-serif;font-weight:700;font-size:24px;">g</text></g><g transform="matrix(0.907511,-0.420028,0.420028,0.907511,-1.57163,704.922)"><text x="1599.88px" y="356.03px" style="font-family:'Sen-Regular', sans-serif;font-weight:700;font-size:24px;">.</text></g><g transform="matrix(0.902237,-0.43124,0.43124,0.902237,4.65842,727.053)"><text x="1605.88px" y="353.252px" style="font-family:'Sen-Regular', sans-serif;font-weight:700;font-size:24px;">.</text></g><g transform="matrix(0.897484,-0.441046,0.441046,0.897484,10.7088,746.834)"><text x="1611.88px" y="350.381px" style="font-family:'Sen-Regular', Sen-Regular;font-weight:700;font-size:24px;">.</text></g></g></g></svg>